<?xml version="1.0" encoding="utf-8"?>
<!-- Generator: Adobe Illustrator 19.0.0, SVG Export Plug-In . SVG Version: 6.00 Build 0)  -->
<svg version="1.1" id="Layer_1" xmlns="http://www.w3.org/2000/svg" xmlns:xlink="http://www.w3.org/1999/xlink" x="0px" y="0px"
	 viewBox="0 0 500 500" style="enable-background:new 0 0 500 500;" xml:space="preserve">
<style type="text/css">
	.st0{fill:#00B488;}
</style>
<g id="XMLID_1_">
	<path id="XMLID_3_" class="st0" d="M242.4,432.2c-14.5-2.3-26.6-12.9-43.4-29.7C148.7,355.3,97,228.9,90.1,122.3
		c20.6,0,41.1,0,60.9,0c16,111.9,41.1,188.1,95.2,249.7c26.6-25.1,48.7-60.1,64-88.3c-29.7-13.7-46.4-39.6-55.6-63.2
		c-28.2-73.1-3.8-150.8,76.1-153c58.6,0,78.4,44.2,79.2,86c-0.8,25.1-4.6,42.6-12.2,64c-16.8,3.8-34.3-0.8-44.9-8.4
		c-8.4-6.1-11.4-3-6.1-19.8c6.1-21.3,8.4-67.8-20.6-68.5c-19.8,1.5-25.1,25.9-25.1,42.6c5.3,68.5,49.5,99,108.1,83.8v44.2
		c-19,4.6-19.8,4.6-43.4,5.3c-13.7,32-88.3,142.4-124.1,135.5H242.4z"/>
</g>
</svg>
