<?xml version="1.0" encoding="UTF-8" standalone="no"?>
<svg xmlns:svg="http://www.w3.org/2000/svg"  xmlns="http://www.w3.org/2000/svg"
     version="1.1" width="311px" height="132px"  id="svg2">
    <path  style="fill:#F51997; stroke:none;"   d="M 137.66,120.78 C 135.55,120.22 132.35,118.28 130.54,116.47
           125.32,111.25 123.83,105.57 123.25,88.658   122.68,71.731 123.79,72.968 112.74,76.954 109.57,78.098
           104.22,79.322 100.85,79.674 95.419,80.241   94.545,80.644 93.114,83.24  86.339,95.525 75.612,109.11
           66.381,117.10 62.743,120.25 61.099,121.00   57.823,121.00 46.095,121.00 28.983,97.613 19.517,68.646
           15.811,57.307 11.000,35.525 11.000,30.085 L 11.000,26.922 19.708,27.211 28.415,27.500 29.076,31.000
         C 29.440,32.925 30.520,38.775 31.477,44.000   33.797,56.663 39.030,72.697 44.020,82.433 48.993,92.136
           56.619,103.00 58.457,103.00 60.861,103.00   74.754,84.500 76.514,78.956 76.945,77.597 75.281,75.317
           70.200,70.305 60.605,60.842 58.560,55.533   58.525,40.000 58.501,28.975 58.628,28.273 61.593,23.000
           67.019,13.351 78.288,8.5018 89.502,10.989   97.038,12.660 101.37,16.004 104.63,22.682 107.15,27.827
           107.45,29.460 107.33,37.483 107.25,42.442   106.57,48.525 105.81,51.000 104.43,55.485 104.40,55.501
           99.403,55.796 95.527,56.024 93.783,55.617   91.737,54.008 89.115,51.945 89.094,51.826 89.663,42.212
           90.193,33.250 90.068,32.288 88.046,29.750   85.297,26.299 80.229,25.984 77.420,29.088 74.684,32.112
           74.161,44.514 76.510,50.667 78.703,56.406   83.144,61.497 88.405,64.298 91.648,66.025 94.165,66.474
           100.50,66.454 109.58,66.427 116.75,63.788   123.23,58.100 126.62,55.123 127.31,54.922 133.19,55.201
         L 139.50,55.500 140.11,77.000 C 140.45,88.825 141.22,99.714 141.82,101.20 143.32,104.91 147.15,107.25
           150.38,106.44 158.41,104.43 164.83,87.754 166.82,63.730 L 167.50,55.500 174.50,55.500 181.50,55.500
           181.80,60.750 C 182.15,66.751 183.54,67.464 186.67,63.239 187.79,61.720 191.13,59.161 194.08,57.551
           204.02,52.146 215.37,53.978 220.67,61.841   223.88,66.602 225.00,73.497 225.00,88.493 225.00,101.12
           225.14,102.05 227.35,104.63 229.57,107.20   229.90,107.29 232.89,106.04 237.16,104.28 240.04,98.989
           244.37,84.953 251.04,63.365 260.85,54.569   278.13,54.671 289.57,54.738 297.39,60.122 299.93,69.688
           303.83,84.345 292.22,95.662 271.22,97.689   267.76,98.022 264.65,98.753 264.31,99.311 263.39,100.80
           268.41,104.74 272.75,105.95 278.28,107.48   283.81,107.18 290.00,105.00 298.28,102.09 298.13,101.99
           297.79,110.22 L 297.5,117.44 292.5,119.35 C 288.96,120.70 284.88,121.27 278.50,121.29 266.67,121.33
           259.63,118.72 252.61,111.71 L 247.6,106.7 245.05,110.08 C 238.92,118.21 233.74,121.36 226.47,121.40
           219.05,121.44 214.14,118.52 210.75,112.04   208.16,107.08 208.00,106.00 207.98,93.636 207.94,73.322
           206.35,69.353 198.65,70.342 192.93,71.076   188.63,75.766 185.72,84.442 185.16,86.124 184.43,94.700
         184.10,103.50 L 183.50,119.50 175.50,119.50 167.50,119.50 167.20,113.25 C 167.04,109.81 166.50,107.00
           166.01,107.00 165.52,107.00 163.75,108.91   162.06,111.25 158.37,116.36 153.45,119.87 148.30,121.07
           143.75,122.13 142.65,122.10 137.66,120.78 z
         M 275.72,85.367 C 280.19,83.767 285.00,78.988 285.00,76.146 285.00,73.337 282.19,70.200 279.05,69.511
           274.71,68.557 267.83,71.923 265.10,76.337   262.54,80.488 260.81,85.877 261.62,87.190 262.33,88.349
           270.25,87.325 275.72,85.367 z
         M 125.31,42.587 C 122.80,40.427 122.50,39.524 122.50,34.000 122.50,28.476 122.80,27.573 125.31,25.413
           128.45,22.712 134.12,22.188 138.53,24.195   143.37,26.401 145.43,33.775 142.81,39.528 140.22,45.205
           130.35,46.929 125.31,42.587 z" />
</svg>